<svg xmlns="http://www.w3.org/2000/svg" width="73.242" height="132.724" viewBox="0 0 73.242 132.724"><g transform="translate(-646 -32.57)"><g transform="translate(646 32.57)"><path d="M0,33.1H5.381V5.3H0V4.7H10.462L27.2,26.821h0V5.3H21.822V4.7H33.48v.6H28.1v29H26.9L6.277,7.091h0V33.4h5.381v.6H0Z" transform="translate(0 9.35)"/><path d="M0,48.1H4.484V20.3H0v-.6H9.267L16.74,41.522h0L24.213,19.7h8.968v.6H29V48.1H33.48v.6H20.327v-.6h4.484V20.6h0L14.946,48.7,5.381,20.6h0V48.1H9.865v.6H0Z" transform="translate(0 39.189)"/><path d="M40.2,48.695,29.144,19.4h-.9L17.187,48.695H13.6v.6h8.669v-.6H17.785l8.968-23.914L36.02,48.695H31.237v.6H43.792v-.6Z" transform="translate(27.054 38.592)"/><path d="M.8,63.1H5.284V35.3H.8v-.6H16.942a12.947,12.947,0,0,1,1.495.3c.6,0,.9.3,1.495.6a13.692,13.692,0,0,1,4.185,2.092,15.668,15.668,0,0,1,2.989,3.288A9.265,9.265,0,0,1,28.9,44.864a23.075,23.075,0,0,1,.6,4.484,23.233,23.233,0,0,1-.6,4.783,9.265,9.265,0,0,1-1.794,3.886,26.952,26.952,0,0,1-2.69,2.989A29.128,29.128,0,0,0,21.127,62.5a4.249,4.249,0,0,1-1.794.6,3.792,3.792,0,0,1-1.794.3,5.836,5.836,0,0,0-2.092.3H.8Zm8.37,0h6.277a8.728,8.728,0,0,0,2.69-.6c.9-.3,1.495-.9,2.391-1.2a7.194,7.194,0,0,0,1.794-2.391,14.093,14.093,0,0,0,1.794-4.484,26.326,26.326,0,0,0,.6-5.082,36.8,36.8,0,0,0-.6-5.979,10.123,10.123,0,0,0-1.794-4.484A11.961,11.961,0,0,0,18.736,35.9a16.179,16.179,0,0,0-5.68-.9H9.768V63.1Z" transform="translate(1.591 69.028)"/><path d="M40.2,63.695,29.144,34.4h-.9L17.187,63.695H13.6v.6h8.669v-.6H17.785l8.968-23.914L36.02,63.695H31.237v.6H43.792v-.6Z" transform="translate(27.054 68.431)"/><g transform="translate(41.551)"><g transform="translate(0 13.452)"><path d="M13.9,19.745a13.383,13.383,0,0,1,1.2-5.979,19.271,19.271,0,0,1,3.288-4.783A21.419,21.419,0,0,1,22.868,5.7,10.562,10.562,0,0,1,27.95,4.5,11.725,11.725,0,0,1,33.33,5.7a12.486,12.486,0,0,1,4.484,3.288A27.089,27.089,0,0,1,41.1,13.767a13.383,13.383,0,0,1,1.2,5.979,12.954,12.954,0,0,1-1.2,5.68,13.017,13.017,0,0,1-2.989,4.783A9.773,9.773,0,0,1,33.629,33.5a12.131,12.131,0,0,1-5.68,1.2,12.131,12.131,0,0,1-5.68-1.2,17.415,17.415,0,0,1-4.484-3.288A16.059,16.059,0,0,1,14.8,25.425,18.77,18.77,0,0,1,13.9,19.745Zm4.783,0a37.312,37.312,0,0,0,.6,6.277,15.756,15.756,0,0,0,1.495,4.484,8.479,8.479,0,0,0,2.989,2.69,9.982,9.982,0,0,0,4.484.9,9.982,9.982,0,0,0,4.484-.9,8.479,8.479,0,0,0,2.989-2.69,9.954,9.954,0,0,0,1.495-4.484,37.312,37.312,0,0,0,.6-6.277,32.49,32.49,0,0,0-.3-5.381,12.806,12.806,0,0,0-1.495-4.783,7.953,7.953,0,0,0-2.989-3.288,8.149,8.149,0,0,0-4.783-1.2,7.584,7.584,0,0,0-4.783,1.2,10.66,10.66,0,0,0-2.989,3.288,22.4,22.4,0,0,0-1.495,4.783A29.063,29.063,0,0,0,18.683,19.745Z" transform="translate(-13.9 -4.5)"/></g><g transform="translate(20.626)"><g transform="translate(0.923 1.463)"><rect width="12.555" height="1.794" transform="translate(0 8.884) rotate(-45.036)"/></g><path d="M24.686,12.256,20.8.3l.6-.3,3.886,11.957Z" transform="translate(-20.8)"/></g></g></g></g></svg>